<svg width="54" height="53" viewBox="0 0 54 53" fill="none" xmlns="http://www.w3.org/2000/svg">
<path d="M53.9146 29.173C53.9146 29.173 53.7857 30.8664 53.3359 32.6612C51.3301 40.6633 46.6343 46.5894 39.2483 50.4395C36.7479 51.7423 34.0777 52.5684 31.2681 53C31.2548 52.9049 31.2371 52.8372 31.2371 52.7695C31.2355 46.763 31.232 40.7566 31.2265 34.7502C31.2257 34.3876 31.3863 34.3732 31.6672 34.3746C33.3903 34.3829 35.1136 34.3787 36.8368 34.3787C37.582 34.3787 37.5609 34.3756 37.6708 33.6373C37.992 31.4814 38.3138 29.3252 38.6782 27.1763C38.7552 26.7225 38.6411 26.6592 38.2288 26.6622C36.0485 26.6785 33.868 26.6691 31.6876 26.6709C31.437 26.6712 31.2194 26.7142 31.2255 26.3185C31.2504 24.7045 31.202 23.0888 31.2507 21.4757C31.3099 19.5129 32.2708 18.2127 33.936 17.7421C34.5622 17.5651 35.2096 17.5018 35.8621 17.5026C36.794 17.5036 37.7261 17.4929 38.6578 17.5086C38.9472 17.5136 39.0521 17.4435 39.05 17.1371C39.0365 15.1929 39.0361 13.2487 39.0486 11.3043C39.05 11.0342 38.9848 10.888 38.6922 10.8522C36.1643 10.5424 33.6335 10.2038 31.0838 10.5347C28.7684 10.8352 26.7336 11.736 25.177 13.515C23.5039 15.427 22.8587 17.716 22.8028 20.1837C22.7575 22.1791 22.7798 24.1764 22.8043 26.1725C22.8094 26.5942 22.6795 26.683 22.2775 26.6789C20.3259 26.659 18.3738 26.6808 16.4222 26.6607C16.0343 26.6567 15.9208 26.7458 15.9245 27.1431C15.9455 29.3997 15.9452 31.6564 15.9237 33.9132C15.9195 34.3245 16.056 34.3903 16.43 34.387C18.3993 34.3693 20.3689 34.3888 22.3381 34.3699C22.7114 34.3663 22.8023 34.4692 22.8015 34.8317C22.7899 40.734 22.7889 46.6362 22.7986 52.5385C22.799 52.8648 22.8001 53.021 22.363 52.944C18.5918 52.2797 15.0882 50.9431 11.9463 48.7839C4.54506 43.6974 0.524778 36.6812 0.0406138 27.793C-0.26939 22.1019 1.19528 16.7996 4.43524 12.0679C9.59045 4.53923 16.8193 0.488923 26.0188 0.0339989C31.309 -0.22761 36.2874 1.02114 40.8114 3.75871C44.4145 5.939 47.2939 8.60765 49.4497 11.7647C49.4497 11.7647 52.9973 16.9597 53.7296 22.7184C53.8934 24.0066 53.9571 25.5241 53.9571 25.5241C53.9987 26.5174 54.044 27.6892 53.9146 29.173Z" fill="#1877F1"/>
</svg>
