<svg width="52" height="52" viewBox="0 0 52 52" fill="none" xmlns="http://www.w3.org/2000/svg">
<path d="M30.9123 2.71924C32.8929 3.08393 34.8203 3.69459 36.6496 4.53705C39.3247 6.1965 41.2757 7.41312 41.5023 7.56071C41.5481 7.59055 41.6563 7.66364 41.6576 7.76152C41.6584 7.81997 41.6105 7.88014 41.509 7.9628C39.1056 9.9186 36.7083 11.8818 34.3171 13.8525C34.097 14.0341 33.9501 13.9715 33.7506 13.8544C31.4916 12.5287 29.0515 11.8936 26.4315 11.9216C20.698 11.9829 15.5133 15.5946 13.4761 20.958C13.4217 21.1011 13.3536 21.239 13.2919 21.3792C12.4439 20.694 11.5961 20.0088 10.7483 19.3235C9.03168 17.9297 7.31589 16.5348 5.60095 15.1389C5.63611 15.0543 5.66326 14.9653 5.70756 14.8858C7.63562 11.4266 10.0606 8.66673 12.9824 6.60626C14.482 5.54994 18.0001 3.33981 23.0235 2.57891C24.3758 2.37407 27.2938 2.05371 30.9123 2.71924Z" fill="#F04336"/>
<path d="M5.60093 15.1389C7.31663 16.5339 9.03242 17.9287 10.7483 19.3235C11.5946 20.0106 12.4425 20.6958 13.2918 21.3792C12.8911 22.753 12.5909 24.1408 12.5518 25.582C12.5015 27.4348 12.8285 29.2188 13.4263 30.9626C10.8773 33.0443 8.32828 35.126 5.77934 37.2076C4.54601 35.0128 3.77311 32.6571 3.30564 30.1909C3.15807 29.4124 3.15122 28.6131 2.9386 27.8457V24.1445C3.02536 24.1067 3.02264 24.027 3.02849 23.9516C3.09775 23.0639 3.22327 22.1815 3.40431 21.3097C3.85139 19.1518 4.52865 17.0748 5.60093 15.1389Z" fill="#FABA01"/>
<path d="M33.744 38.1661C35.8023 36.9029 37.495 35.2733 38.7321 33.1875C39.0864 32.5902 39.3796 31.9629 39.6666 31.3312C39.822 30.989 39.7205 30.9203 39.3765 30.9217C36.8013 30.9321 34.226 30.9273 31.6508 30.9273C30.2937 30.9273 28.9366 30.919 27.5797 30.9334C27.2663 30.9367 27.1527 30.856 27.1541 30.5234C27.1658 27.6706 27.1658 24.8177 27.1538 21.9649C27.1524 21.6308 27.2658 21.5571 27.5787 21.5574C34.8881 21.5651 42.1976 21.5651 49.507 21.5574C49.8192 21.557 49.9174 21.6551 49.9661 21.9644C51.1025 29.1833 49.3541 35.6159 44.721 41.2622C43.7522 42.443 42.6744 43.5229 41.443 44.4382C41.2498 44.2854 41.0544 44.1354 40.8637 43.9797C38.4901 42.0423 36.1168 40.1044 33.744 38.1661Z" fill="#518EF7"/>
<path d="M33.7441 38.1663C36.1172 40.1043 38.4904 42.0422 40.8638 43.9799C41.0545 44.1356 41.2499 44.2856 41.4431 44.4384C39.8748 45.7797 38.1131 46.811 36.2354 47.6455C32.4553 49.3255 28.4881 50.0223 24.3832 49.5642C16.1241 48.6425 9.94005 44.5031 5.80797 37.2953C5.79543 37.2671 5.78587 37.2378 5.77942 37.2076C8.32838 35.126 10.8774 33.0443 13.4264 30.9626C14.17 32.7918 15.1864 34.4443 16.5775 35.8576C21.0152 40.3663 27.8534 41.3723 33.4149 38.3323C33.5227 38.2734 33.6343 38.2215 33.7441 38.1663Z" fill="#28B346"/>
</svg>
