<svg width="282" height="282" viewBox="0 0 282 282" fill="none" xmlns="http://www.w3.org/2000/svg">
<path d="M159.441 28.1731C155.286 34.1727 158.846 39.8451 161.575 41.7811C157.921 55.9219 147.183 55.6301 138.368 45.7037C144.085 37.3142 136.929 25.7113 126.6 27.0719C113.021 28.9571 112.923 45.6007 122.934 49.4909C122.869 53.2317 118.897 62.102 115.358 63.794C107.724 67.9774 101.454 64.8599 97.871 60.5947C102.683 48.7352 88.7723 37.3198 77.567 45.3766C70.1969 50.8445 70.658 65.1659 82.4329 68.7826C84.868 79.4224 78.4849 91.7416 65.5439 84.239C71.253 68.4879 44.745 64.3298 43.2462 80.0245C42.2831 86.4865 47.6242 93.1558 54.3598 92.7709C61.2335 111.838 77.23 123.163 70.9273 144.095C68.9603 149.533 66.5774 152.163 62.8903 154.281C69.3946 155.306 72.0553 154.798 77.2399 153.892C76.979 165.073 77.7954 177.082 83.0491 186.653C88.3027 196.224 85.752 207.5 79.2012 215.668C77.9717 217.091 75.2786 219.29 77.9984 220.462C80.7183 221.634 82.4696 221.872 85.4122 221.872C92.5116 221.872 99.006 219.08 104.37 214.681C104.291 221.555 97.9965 228.651 103.063 234.945C107.301 241.912 113.573 247.379 120.631 251.37C136.609 261.945 160.33 264.06 176.799 258.308C178.641 245.261 177.396 245.683 178.24 234.945C208.712 239.242 215.528 224.696 217.951 196.49C226.008 196.61 234.613 192.287 237.289 185.392C237.967 183.784 240.391 178.06 237.402 173.169C234.848 168.209 228.225 167.021 224.325 171.222C231.798 171.195 232.785 183.193 223.178 179.726C222.261 179.246 219.842 175.507 217.866 174.322C219.089 159.94 216.669 140.099 212.456 125.225C211.355 121.545 215.135 118.926 216.483 115.637C224.802 96.9529 213.87 76.0342 192.949 74.7793C190.533 66.5688 188.485 58.247 186.412 49.9379C193.678 49.8561 195.24 38.0446 186.958 36.9659C178.675 35.8873 176.907 45.8997 179.548 52.2207C176.325 49.8025 175.06 45.7911 174.318 42.0884C186.241 32.5709 169.254 16.6675 159.441 28.1731Z" fill="black"/>
<path d="M126.511 33.9485C125.954 34.2716 125.494 34.7374 125.177 35.2978C124.268 36.956 124.874 39.2769 126.33 40.5966C127.547 41.7006 129.487 42.2223 131.124 41.4821C131.854 41.1407 132.47 40.597 132.9 39.9156C134.446 35.687 130.778 32.0647 126.511 33.9485Z" fill="#F9EC23"/>
<path d="M132.904 39.9156C132.541 40.4503 132.05 40.8864 131.477 41.1846C129.881 41.9912 127.836 41.523 126.542 40.3584C125.132 39.0894 124.473 36.8404 125.331 35.2147C125.609 34.7025 126.014 34.2693 126.505 33.9556C126.115 34.1219 124.503 34.858 123.74 36.6599C123.035 38.3139 123.176 40.5501 124.678 42.0504C126.289 43.6606 128.739 43.6888 130.44 42.8061C132.117 41.9404 132.743 40.3598 132.904 39.9156Z" fill="#C8BE2E"/>
<path d="M170.305 31.2244C169.869 30.9927 169.379 30.8808 168.886 30.9001C167.439 30.9776 166.171 32.3101 165.899 33.7948C165.672 35.0342 166.118 36.5091 167.263 37.2789C167.78 37.6167 168.384 37.7988 169.003 37.8034C172.381 37.0984 173.258 33.2421 170.305 31.2244Z" fill="#F9EC23"/>
<path d="M169.003 37.8034C168.508 37.7803 168.027 37.635 167.603 37.3804C166.432 36.667 165.91 35.1456 166.147 33.8343C166.408 32.4031 167.604 31.0636 169.01 30.9663C169.456 30.9405 169.902 31.0283 170.305 31.2215C170.035 31.0312 168.895 30.2825 167.416 30.5165C166.056 30.728 164.654 31.7235 164.283 33.3069C163.886 35.0088 164.857 36.6162 166.116 37.3677C167.367 38.1052 168.647 37.8782 169.003 37.8034Z" fill="#C8BE2E"/>
<path d="M172.533 52.1376C171.758 51.0378 170.975 49.8689 170.196 48.6324C169.158 46.9841 168.231 45.3823 167.402 43.8384C166.162 46.9917 164.377 49.9029 162.13 52.4394C163.609 52.3054 165.162 52.2025 166.783 52.1433C168.802 52.0812 170.723 52.0826 172.533 52.1376Z" fill="#F9EC23"/>
<path d="M133.465 49.6321C132.83 50.0238 132.144 50.3269 131.427 50.5331C130.684 50.747 129.914 50.8528 129.14 50.8475C128.916 52.2321 128.622 53.7183 128.235 55.2848C127.835 56.902 127.389 58.398 126.927 59.7643C129.042 58.955 131.357 58.1626 133.846 57.4294C136.226 56.7244 138.499 56.1604 140.632 55.7007C137.886 54.1438 135.455 52.0875 133.465 49.6377V49.6321Z" fill="#F9EC23"/>
<path d="M82.4214 54.3005C82.3152 54.3578 82.2217 54.4359 82.1465 54.5303C82.2212 54.3203 82.4214 54.1539 82.4214 54.3005Z" fill="white"/>
<path d="M90.2556 59.7192C86.8716 60.6328 83.5017 59.6035 81.8534 57.2249C81.5037 56.7201 81.8534 55.0408 80.7564 53.5462C80.6873 53.4517 80.6281 53.3784 80.5886 53.329C80.8937 52.6855 81.3253 52.1101 81.8576 51.637L81.8957 51.6032C82.0446 51.4716 82.2014 51.3491 82.3652 51.2366C83.2733 50.5739 85.1852 49.5051 87.4694 50.0903C89.7254 50.6655 91.6205 52.7044 91.8503 55.1902C92.0801 57.6761 90.5291 59.4188 90.2556 59.7192Z" fill="#F9EC23"/>
<path d="M80.3545 53.8817C80.1459 54.4231 79.4874 56.3182 80.3193 58.2893C81.4233 60.9077 84.6226 62.4136 87.3354 61.6353C88.7074 61.2419 90.0144 60.3099 90.9902 58.7166C88.6101 59.8643 85.8084 59.595 83.7893 58.0116C81.1103 55.9149 81.2132 52.607 81.2287 52.2898C81.1159 52.4308 81.0257 52.5605 80.9566 52.6649C80.8226 52.8651 80.7395 53.0174 80.7155 53.0625C80.6464 53.1908 80.6041 53.2867 80.5886 53.3233C80.5731 53.36 80.566 53.3783 80.5618 53.3882C80.5266 53.4798 80.4659 53.6251 80.3545 53.8817Z" fill="#C8BE2E"/>
<path d="M111.284 74.7935C110.964 75.3237 115.139 79.2717 116.188 79.3704C116.367 79.204 116.649 79.1645 116.841 79.0432C118.202 78.1972 118.956 78.4708 120.437 78.0562C123.962 77.0876 127.238 74.9148 130.794 73.705C134.35 72.4952 138.549 71.4137 142.01 69.8839C143.599 69.1789 144.548 69.2043 146.259 68.9039C150.138 68.2201 154.103 66.6775 158.048 65.9852C161.994 65.2929 166.982 65.6779 170.446 64.3271C171.252 64.0141 171.899 63.8575 172.546 63.8547C173.288 63.857 174.021 64.0181 174.696 64.3271C175.788 64.7994 178.066 65.1364 183.169 64.6739C183.094 64.2989 182.984 63.7335 182.852 63.0468C182.216 59.7136 182.227 59.3808 182.006 58.9789C180.958 57.0049 176.717 57.2672 175.599 57.3476C159.773 58.4925 148.085 61.4958 148.085 61.4958C141.369 63.2216 138.011 64.0846 137.124 64.3496C128.209 67.0309 119.559 70.5269 111.284 74.7935Z" fill="#F5EA14"/>
<path d="M175.576 63.7926C175.725 64.1775 175.839 64.5748 175.917 64.9798C176.085 65.8593 176.085 66.7625 175.917 67.6419C177.249 67.5263 178.606 67.3933 179.986 67.2429C181.193 67.1122 182.38 66.9712 183.545 66.8199C183.421 66.1083 183.296 65.3953 183.169 64.6809C183.083 64.1931 182.996 63.7057 182.908 63.2188C182.572 63.2526 182.077 63.2991 181.478 63.3499C180.665 63.4204 180.06 63.4627 179.771 63.4838C178.788 63.5543 177.444 63.653 175.576 63.7926Z" fill="#C8BE2E"/>
<path d="M146.788 68.1466C147.028 68.3327 148.278 69.3367 148.459 71.0893C148.54 71.93 148.369 72.7758 147.967 73.5187C151.469 72.5063 155.241 71.5447 159.264 70.679C163.387 69.7963 167.312 69.1181 171.002 68.6006C170.574 68.0009 170.325 67.2919 170.284 66.5561C170.249 65.5505 170.594 64.5685 171.252 63.8066C167.364 64.2029 163.215 64.764 158.835 65.5438C154.536 66.308 150.515 67.1977 146.788 68.1466Z" fill="#C8BE2E"/>
<path d="M104.57 70.6185C102.151 70.8514 99.7139 70.4123 97.5282 69.3495C96.0236 68.6058 94.6771 67.5778 93.5633 66.3223C93.135 66.7637 92.6414 67.1365 92.0997 67.4277C91.5032 67.7471 90.8574 67.9645 90.1892 68.0707C89.9946 69.8153 89.8235 71.6121 89.6759 73.4611C89.534 75.2574 89.4221 77.0091 89.3403 78.7162C91.696 77.4472 94.0648 76.1782 96.4467 74.9092C99.1624 73.4663 101.87 72.0361 104.57 70.6185Z" fill="#F9EC23"/>
<path d="M120.46 77.5641C121.294 78.0152 121.943 78.7448 122.293 79.6255C122.828 81.0482 122.434 82.7191 121.306 83.9458C128.592 80.2953 136.347 77.5331 143.862 74.7935C143.137 74.2278 142.6 73.4561 142.321 72.5798C141.997 71.5047 142.075 70.3486 142.541 69.3269C137.929 70.7087 134.139 72.0355 131.282 73.1043C128.603 74.1054 126.404 75.0078 125.228 75.5013C123.41 76.2542 121.808 76.9564 120.46 77.5641Z" fill="#C8BE2E"/>
<path d="M118.461 91.268C119.337 91.777 120.9 94.9114 122.057 95.1892C126.154 93.1969 129.968 91.4541 133.424 89.9454C134.903 89.2982 138.552 87.7106 142.637 86.1032C158.908 79.6989 175.221 75.7129 177.862 75.1334C178.528 75.0336 179.181 74.8596 179.809 74.6145C181.986 73.7205 183.403 71.975 184.321 70.4084C161.375 73.715 139.127 80.7617 118.461 91.268Z" fill="#F5EA14"/>
<path d="M100.022 80.9749C100.761 81.5192 103.903 83.7047 108.341 83.2887C112.87 82.8657 115.578 80.0358 116.184 79.3703C115.135 79.2716 110.967 75.3236 111.28 74.7935C109.429 75.7391 107.539 76.7397 105.609 77.7953C103.679 78.851 101.817 79.9108 100.022 80.9749Z" fill="#F5EA14"/>
<path d="M112.588 80.9339C109.221 81.5388 107.104 80.0978 102.264 80.5786C101.345 80.6703 100.606 80.8028 100.156 80.8931C95.0339 83.9105 89.5349 87.4425 83.8568 91.5752C78.2842 95.6274 72.9243 99.9642 67.7983 104.568C68.289 105.306 68.7853 106.105 69.2788 106.965C69.8118 107.899 70.2799 108.798 70.6888 109.658C72.7686 108.248 75.2911 105.984 77.2524 104.454C79.2137 102.924 82.2269 100.261 84.1614 99.2738C86.0959 98.2868 89.9593 94.5179 90.6234 94.9494C89.4757 90.3246 94.0652 87.1944 98.1415 88.7454C98.3798 88.837 98.9382 88.9611 99.1215 89.0725C99.8045 88.611 100.52 88.2001 101.263 87.8429C101.771 87.5983 102.291 87.3794 102.821 87.1873C106.012 85.9973 107.35 84.1854 109.395 84.2376C110.213 84.2587 111.412 84.583 112.856 86.127C112.292 86.8165 111.587 87.3466 110.569 87.434C111.723 88.5028 111.733 87.3593 113.183 87.434C115.414 85.8007 117.98 84.6838 120.696 84.1643C118.199 84.4942 114.878 81.5106 117.1 78.9346C115.267 80.2698 113.667 80.7436 112.588 80.9339Z" fill="#F5EA14"/>
<path d="M51.8782 78.8191C50.361 81.4008 51.4552 84.6805 53.9227 85.8042C56.2111 86.8448 59.1552 85.7972 60.3269 83.2916C60.5466 82.2358 60.4174 81.1372 59.9586 80.1612C59.4999 79.1853 58.7365 78.3847 57.7834 77.8802C56.8303 77.3756 55.7391 77.1944 54.674 77.3637C53.609 77.5331 52.6278 78.0438 51.8782 78.8191Z" fill="#F9EC23"/>
<path d="M60.3269 83.2958C58.6561 87.7486 49.5475 83.5299 51.8782 78.8191C51.63 79.0475 50.1749 80.4265 50.2144 82.5457C50.2525 84.6212 51.7034 86.364 53.5124 87.038C55.6767 87.8445 57.9215 86.959 59.1651 85.5702C59.7372 84.9216 60.1367 84.1395 60.3269 83.2958Z" fill="#C8BE2E"/>
<path d="M98.1741 89.6761C98.6621 89.8063 99.1186 90.0339 99.5162 90.3453C99.9139 90.6567 100.244 91.0455 100.488 91.488C100.731 91.9306 100.882 92.4178 100.932 92.9204C100.982 93.423 100.93 93.9305 100.778 94.4123C103.249 92.9501 105.409 91.7248 107.153 90.7561C108.954 89.7565 111.356 88.4254 114.588 86.7926C115.903 86.1285 117.017 85.5857 117.831 85.1965L117.453 84.225C117.171 84.194 116.308 84.0601 115.71 83.3536C114.95 82.4555 114.926 80.9975 115.723 79.792C113.411 80.92 111.377 81.9817 109.66 82.9053C106.372 84.6762 103.879 86.1483 102.807 86.794C100.979 87.8854 99.4163 88.8682 98.1741 89.6761Z" fill="#C8BE2E"/>
<path d="M146.866 102.578C144.553 107.84 141.287 112.63 137.232 116.706C140.02 116.398 142.77 115.81 145.44 114.953C148.292 114.02 151.042 112.799 153.648 111.311C155.455 110.283 157.128 109.337 159.18 107.714C162.219 105.317 163.072 103.846 164.795 103.854C166.191 103.854 167.516 104.841 168.766 106.5C177.055 100.578 184.458 91.2651 193.607 86.8884C185.085 87.1465 176.091 89.0641 168.509 92.8471C160.927 96.6301 154.536 99.711 146.866 102.578Z" fill="#333333"/>
<path d="M100.124 90.484C99.9479 90.1667 99.4544 89.3687 99.1371 89.1755C98.9538 89.0641 98.3955 88.94 98.1501 88.8484C98.5421 89.0317 99.828 90.0751 100.124 90.484Z" fill="#575757"/>
<path d="M72.7123 91.4344C69.0377 91.2284 65.4013 90.5798 61.8821 89.5027C62.3135 90.5583 62.7422 91.6172 63.168 92.6794C63.842 94.3564 64.5 96.0216 65.142 97.675C67.8969 95.8962 70.4347 93.8018 72.7038 91.4344H72.7123Z" fill="#F9EC23"/>
<path d="M70.6917 109.66C71.0216 110.419 71.3506 111.187 71.6787 111.964C71.9813 112.684 72.2788 113.401 72.5712 114.114C79.9257 109.26 87.0448 103.301 94.4699 98.4252C93.5244 98.2244 92.6548 97.7605 91.9615 97.0869C91.2682 96.4133 90.7795 95.5575 90.5515 94.6182C87.2817 96.7839 83.8822 99.1767 80.3995 101.809C76.9168 104.442 73.6696 107.095 70.6917 109.66Z" fill="#C8BE2E"/>
<path d="M202.194 91.0593C201.771 91.237 201.359 91.4456 201.359 91.4456C201.117 91.5711 200.909 91.6867 200.742 91.7854C209.436 92.74 213.977 102.595 210.569 109.661C211.721 108.442 212.626 107.011 213.234 105.448C213.631 104.422 215.506 99.1668 212.519 94.6365C210.592 91.7121 207.246 90.0088 205.348 90.2119C204.642 90.2866 202.916 90.759 202.194 91.0593Z" fill="#333333"/>
<path d="M211.456 108.529C214.736 103.385 210.803 96.0464 208.526 94.0724C207.563 93.2766 206.529 92.571 205.437 91.9644C204.625 91.5259 203.782 91.1776 203.782 91.1776C203.415 91.0254 203.096 90.9083 202.851 90.8237C202.741 90.859 202.569 90.914 202.379 90.9859C201.51 91.3169 200.667 91.7108 199.856 92.1646C198.849 92.7286 196.633 94.1936 193.885 96.3946C195.656 96.3941 197.409 96.7559 199.036 97.4578C206.649 100.783 208 110.544 208.119 111.501C210.018 110.496 210.977 109.275 211.456 108.529Z" fill="#4D4E4E"/>
<path d="M122.057 95.189C120.901 94.907 119.337 91.7768 118.461 91.2678C109.023 96.2334 99.8394 101.669 90.9451 107.553C85.267 111.31 79.9471 115.087 74.9895 118.825C75.4449 119.724 75.8975 120.723 76.3234 121.815C76.6138 122.564 76.8648 123.288 77.0791 123.977C83.6821 118.885 91.0677 113.621 99.2598 108.392C107.204 103.321 114.859 98.9523 122.057 95.189Z" fill="#C8BE2E"/>
<path d="M125.208 101.5C125.588 103.024 126.375 104.416 127.485 105.527C128.595 106.638 129.986 107.426 131.509 107.807C134.356 104.093 136.888 99.8309 139.687 96.0394C138.17 95.7927 132.175 94.996 127.597 98.8228C126.674 99.5936 125.869 100.496 125.208 101.5Z" fill="#1A1A1A"/>
<path d="M168.766 106.5C168.236 105.673 166.843 103.753 164.651 103.448C163.081 103.229 161.823 103.94 159.888 105.178C154.591 108.562 154.419 109.393 151.388 111.176C148.85 112.67 146.407 113.595 142.727 114.983C141.207 115.558 139.926 115.998 139.02 116.298C141.086 114.95 142.915 113.271 144.435 111.328C145.66 109.753 146.203 108.607 147.057 107.157C148.799 104.23 150.896 101.531 153.302 99.1202C148.145 101.506 146.74 101.999 146.675 101.86C146.61 101.72 148.336 100.949 149.388 99.0399C149.786 98.3109 150.042 97.5127 150.141 96.688L128.888 123.169C143.885 122.67 156.966 114.929 168.766 106.5Z" fill="#4D4E4E"/>
<path d="M90.646 142.454C90.3287 142.81 89.9692 143.262 89.9917 143.762C94.6279 141.83 99.1305 139.592 103.47 137.063C117.508 128.874 125.301 120.226 127.254 115.978C127.406 115.647 128.138 114.004 129.307 111.827C130.553 109.503 131.704 107.679 132.471 106.51C131.625 106.455 128.973 106.169 126.884 104.042C126.168 103.311 125.597 102.449 125.202 101.504C122.26 106.439 119.543 110.519 117.373 113.619C115.107 116.862 112.921 120.226 109.358 124.236C106.455 127.494 103.508 130.707 100.369 133.874C97.2307 137.041 94.1597 139.944 90.646 142.454Z" fill="#333333"/>
<path d="M207.662 216.978C204.932 222.561 199.484 226.566 193.28 227.111C189.367 227.455 184.789 227.874 161.6 217.607C152.342 213.506 147.712 211.456 146.163 210.316C131.891 199.808 128.916 182.207 127.887 176.141C125.559 162.477 128.437 152.384 129.118 150.128C133.224 136.532 141.152 130.989 141.63 130.707L143.061 129.826C144.165 129.291 144.928 129.324 149.505 126.82C163.377 119.23 174.7 110.323 174.7 110.323C176.123 109.206 178.1 107.614 181.164 106.851C185.765 105.705 189.776 107.18 191.561 107.862C198.477 110.504 201.977 116.181 203.123 118.262C201.22 117.327 199.239 116.562 197.201 115.975C195.062 115.358 192.63 114.695 189.35 114.674C186.883 114.657 183.808 115.262 181.581 116.057C179.422 116.831 177.344 117.817 175.377 118.998C173.426 120.162 171.61 121.371 169.822 122.594C168.034 123.816 165.713 124.915 163.943 125.869C162.174 126.824 159.807 129.229 159.613 129.383C154.739 129.005 150.884 130.662 149.71 132.55C149.162 133.428 148.634 135.264 148.56 135.519C148.195 136.788 148.212 137.255 148.429 137.664C148.658 138.097 149.17 138.566 149.742 138.585C150.314 138.603 150.596 138.174 150.881 138.321C151.048 138.407 151.196 138.683 151.115 139.515C151.844 139.845 150.369 139.892 150.788 140.495C154.102 141.402 156.806 143.974 159.941 145.072C159.485 145.957 158.456 146.464 157.979 147.36C157.364 148.511 157.159 150.269 157.325 151.609C155.505 149.959 151.334 152.139 149.382 152.819C147.431 153.498 145.48 155.015 143.843 156.757C142.206 158.498 141.812 160.803 140.76 163.154C139.708 165.504 140.387 169.122 140.002 171.875C139.617 174.627 141.214 177.725 141.636 179.719C141.636 183.373 142.558 186.126 144.904 188.871C147.032 193.683 149.601 199.645 154.633 203.328C159.666 207.01 164.08 210.258 169.67 212.807C175.259 215.356 181.612 218.639 187.65 219.668C193.687 220.697 203.115 222.143 207.662 216.978Z" fill="#FDCC8B"/>
<path d="M159.612 129.38C161.613 128.994 163.733 129.053 165.816 129.053C167.556 128.894 169.306 128.894 171.046 129.053C173.21 129.053 177.427 128.83 177.911 131.341C179.813 132.966 183.41 132.364 184.529 135.508C185.649 138.652 184.465 141.007 183.166 143.787C181.867 146.568 179.923 147.226 177.884 149.286C175.845 151.346 171.377 150.3 169.411 151.927C168.444 158.272 158.099 157.906 157.318 151.6C155.498 149.951 151.327 152.13 149.375 152.81C147.424 153.49 145.472 155.007 143.835 156.748C142.009 158.691 141.479 160.774 140.753 163.145C140.072 165.342 139.696 167.622 139.635 169.922C139.595 173.289 140.274 176.627 141.629 179.71C141.654 178.59 141.884 175.013 144.625 172.285C147.366 169.557 152.401 167.872 155.552 170.17C157.139 171.325 157.732 173.117 157.972 174.157C155.371 173.17 152.694 173.644 151.291 175.298C151.166 175.439 149.794 177.116 150.334 178.978C150.884 180.869 153.013 181.621 153.45 181.773C157.074 183.05 160.582 180.129 165.791 177.402C165.791 177.402 174.031 173.235 178.891 172.525C180.009 172.373 181.138 172.314 182.266 172.348C182.887 172.375 183.506 172.434 184.121 172.525C185.801 172.199 186.784 169.365 188.774 168.678C190.763 167.992 193.857 167.642 195.781 167.188C197.706 166.734 201.844 166.821 202.099 164.681C201.318 161.524 199.521 158.405 198.261 155.444C197.002 152.483 195.134 149.485 194.182 146.448C193.231 143.411 190.767 138.848 192.62 135.591C193.147 134.663 192.85 135.484 193.607 135.918C192.985 133.892 195.888 134.163 196.221 132.323C197.059 127.656 203.397 129.503 207.008 129.054C206.547 127.462 206.021 125.803 205.413 124.087C204.678 122.009 203.908 120.066 203.127 118.261C200.137 116.345 196.766 115.101 193.247 114.616C190.982 114.309 188.685 114.336 186.427 114.694C184.417 115.028 182.949 115.561 181.588 116.056C179.426 116.824 177.347 117.809 175.384 118.997C173.433 120.16 171.617 121.37 169.829 122.592C168.041 123.815 165.72 124.913 163.95 125.868C162.181 126.822 159.806 129.226 159.612 129.38Z" fill="#FFDAAB"/>
<path d="M90.646 142.454C87.8838 144.964 84.9334 147.259 81.8208 149.319C91.4201 149.123 101.361 143.164 109.034 137.307C116.707 131.45 123.017 124.276 127.257 115.979C117.144 128.217 104.158 137.843 89.9946 143.764C89.9692 143.256 90.3287 142.81 90.646 142.454Z" fill="#4D4E4E"/>
<path d="M104.374 116.632C99.0552 119.764 94.6334 123.365 89.5687 126.993C84.504 130.621 79.1982 135.302 79.5323 142.128C88.9709 135.414 98.0527 126.284 104.374 116.632Z" fill="#333333"/>
<path d="M155.368 123.448C148.249 127.458 142.2 129.394 139.83 130.216C135.064 131.849 130.115 132.885 125.095 133.301C120.294 149.285 120.239 167.557 125.749 183.311C121.712 181.34 118.109 178.582 115.153 175.2C112.196 171.817 109.946 167.877 108.533 163.612C103.563 161.253 97.8032 161.779 93.6916 164.981C87.8866 169.5 88.2547 176.956 88.8144 179.063C89.181 180.445 91.5061 188.662 99.2484 192.16C100.517 192.736 105.973 195.196 111.092 192.865C111.965 192.466 114.974 191.093 116.515 187.86C116.855 187.142 117.102 186.384 117.25 185.604C120.012 190.068 123.009 194.382 126.229 198.528C126.229 198.528 131.426 205.223 136.536 210.443C151.452 225.671 192.929 228.185 193.077 227.113C193.167 226.491 179.673 225.506 161.398 217.608C151.837 213.475 145.313 207.491 138.415 199.411C131.518 191.33 128.658 179.737 128.038 168.931C127.417 158.124 129.246 144.371 137.163 136.873C139.212 134.933 139.883 135.153 149.278 128.575C154.67 124.801 159.007 121.563 161.903 119.359C160.266 120.493 158.061 121.933 155.368 123.448Z" fill="#CCA370"/>
<path d="M165.823 129.053H171.053C169.313 128.894 167.563 128.894 165.823 129.053Z" fill="#8D8D8D"/>
<path d="M175.63 136.206C173.433 136.638 172.877 139.648 171.134 140.859C169.392 142.07 167.817 144.655 165.823 145.027C168.546 146.021 169.834 149.175 169.418 151.891C171.384 150.264 175.858 151.313 177.891 149.25C179.924 147.187 181.873 146.524 183.173 143.751C184.473 140.978 185.657 138.613 184.537 135.471C183.416 132.33 179.82 132.933 177.918 131.305V136.206C177.162 136.137 176.381 136.298 175.63 136.206Z" fill="white"/>
<path d="M192.626 135.59C193.243 135.744 193.31 136.447 193.613 136.897C194.387 136.953 195.986 135.6 196.227 135.59C196.601 134.744 196.103 133.246 196.227 132.322C195.894 134.155 192.984 133.891 193.613 135.917C192.856 135.483 193.153 134.662 192.626 135.59Z" fill="white"/>
<path d="M196.532 134.967C195.738 135.086 195.384 135.291 194.345 135.39C193.732 135.447 193.116 135.447 192.503 135.39C193.699 137.094 194.898 138.894 196.101 140.79C196.947 142.128 197.75 143.444 198.51 144.738C200.017 142.905 202.717 142.531 204.721 143.758C203.253 141.737 207.259 138.259 206.028 135.58H207.335C205.557 135.368 204.105 135.298 203.092 135.26C201.21 135.202 201.082 135.312 199.717 135.188C197.964 135.036 197.623 134.803 196.532 134.967Z" fill="#CCA370"/>
<path d="M151.115 139.512C151.844 139.842 150.369 139.889 150.788 140.492C154.102 141.399 156.806 143.971 159.941 145.069C159.485 145.955 158.456 146.461 157.979 147.358C159.549 144.873 163.244 144.127 165.823 145.069C167.817 144.697 169.393 142.118 171.135 140.901C172.876 139.684 173.433 136.671 175.63 136.248C166.876 135.165 159.12 136.254 151.115 139.512Z" fill="white"/>
<path d="M204.721 143.762C205.976 144.529 206.894 146.259 207.008 147.684C207.431 148.341 209.078 149.161 209.623 149.972C209.494 145.155 209.058 140.351 208.316 135.59C208.034 135.493 207.611 135.714 207.329 135.59H206.022C207.256 138.268 203.253 141.742 204.721 143.762Z" fill="white"/>
<path d="M209.623 149.972C209.078 149.161 207.434 148.34 207.008 147.683C207.28 150.073 205.262 152.09 203.085 152.587C205.842 158.578 211.666 166.501 205.701 172.525C208.094 172.475 210.483 172.751 212.802 173.345C214.275 165.415 213.161 157.221 209.623 149.972Z" fill="#FFDAAB"/>
<path d="M99.144 156.51C100.015 156.465 100.887 156.465 101.758 156.51C100.893 156.362 100.009 156.362 99.144 156.51Z" fill="#898989"/>
<path d="M88.9047 179.39C88.7722 178.327 88.1616 172.587 92.1308 167.91C95.9378 163.43 102.41 161.721 108.533 163.612C108.433 162.803 107.913 159.3 105.06 157.498C103.791 156.695 102.522 156.53 101.485 156.394C100.478 156.263 97.8483 156.055 95.1157 157.285C91.5555 158.887 89.9467 161.974 89.1712 163.461C85.587 170.335 88.2772 177.77 88.9047 179.39Z" fill="#FDCC8B"/>
<path d="M184.128 172.525C188.37 173.006 192.466 177.563 196.849 175.768C201.231 173.973 203.167 168.973 202.105 164.681C201.85 166.821 197.712 166.734 195.787 167.188C193.862 167.642 190.766 167.992 188.779 168.678C186.793 169.365 185.808 172.199 184.128 172.525Z" fill="#CCA370"/>
<path d="M109.931 184.945C109.994 184.428 107.613 184.412 105.763 182.25C105.391 181.814 103.347 179.43 104.302 177.033C105.127 174.963 107.584 174.41 107.882 174.354C107.923 174.16 108.552 170.909 106.449 169.024C104.281 167.081 100.942 168.148 99.2429 169.245C96.1846 171.219 95.9336 174.937 95.8758 175.803C95.6643 178.932 97.0292 182.289 99.7689 184.271C104.058 187.361 109.839 185.738 109.931 184.945Z" fill="black"/>
<path d="M144.904 188.868C147.032 193.68 149.601 199.642 154.633 203.325C159.666 207.008 164.08 210.255 169.67 212.804C175.259 215.353 181.612 218.636 187.65 219.665C193.687 220.695 203.113 222.143 207.661 216.978C209.977 210.379 211.308 203.45 211.91 196.392C207.033 195.938 202.365 193.878 198.508 190.835C197.657 190.166 196.889 189.398 196.22 188.547C195.831 187.867 195.136 187.378 194.913 186.587C182.863 199.855 157.57 203.689 144.904 188.868Z" fill="#FFDAAB"/>
<path d="M198.51 190.829C197.805 190.179 196.888 189.26 196.221 188.541C196.89 189.392 197.659 190.16 198.51 190.829Z" fill="#878787"/>
<path d="M185.435 200.309C188.502 203.615 192.459 204.203 192.459 204.203C193.49 204.355 196.74 204.839 199.749 202.919C201.344 201.902 203.838 199.594 203.407 197.376C203.332 196.997 203.257 196.609 202.933 196.369C201.541 195.336 198.912 199.508 194.989 199.766C190.447 200.063 187.186 194.911 185.208 196.261C184.728 196.588 184.362 197.273 184.303 197.91C184.233 198.684 184.618 199.428 185.435 200.309Z" fill="black"/>
<path d="M116.466 207.477C116.59 215.448 126.759 226.786 126.759 226.786C128.897 230.446 131.585 233.756 134.73 236.598C141.333 242.561 148.147 244.789 151.65 245.894C155.942 247.244 160.396 248.017 164.892 248.192C164.873 248.232 164.848 248.269 164.819 248.302C164.537 248.614 163.994 248.34 163.722 248.541C163.573 248.651 163.45 248.927 163.612 249.69C164.173 249.623 164.724 249.488 165.252 249.288C165.622 249.136 165.977 248.951 166.314 248.735C166.747 248.481 167.163 248.198 167.559 247.889C168.242 247.344 168.857 246.719 169.392 246.028C159.029 243.219 149.388 238.225 141.116 231.381C141.116 231.381 132.045 224.211 118.791 207.754C118.261 207.095 117.796 206.403 117.796 206.403C117.4 205.802 117.046 205.174 116.737 204.525C116.67 204.845 116.596 205.251 116.545 205.722C116.485 206.305 116.459 206.891 116.466 207.477Z" fill="#FFDAAB"/>
<path d="M114.522 220.71C116.159 225.47 118.604 229.913 121.749 233.843C130.061 244.199 140.611 247.52 144.873 248.802C150.231 250.41 159.241 253.109 166.405 248.661C166.902 248.352 167.295 248.07 167.556 247.872C141.113 249.753 120.521 222.392 116.472 206.568C116.386 211.695 116.37 215.657 114.522 220.71Z" fill="#FDCC8B"/>
<path d="M144.88 248.801C135.923 244.686 129.934 240.116 126.328 236.957C123.302 234.304 121.675 232.393 120.391 230.521C117.133 225.779 115.888 221.074 115.353 218.063C111.8 228.356 112.353 231.784 113.736 232.853C114.159 233.181 114.399 233.644 119.698 237.022C124.181 239.88 126.423 241.309 127.905 242.107C131.277 243.891 134.771 245.436 138.36 246.729C140.921 247.657 143.153 248.328 144.88 248.801Z" fill="#CCA370"/>
<path d="M173.382 149.65H169.33V153.734H173.382V149.65Z" fill="white"/>
<path d="M112.849 164.138L136.082 144.129V134.499L112.849 154.405V164.138Z" fill="black"/>
<path d="M132.939 128.053V137.475H140.925V153.701H144.978V157.764H177.444V153.701H181.499V149.646H185.563V136.164H198.621L198.672 153.706H201.789V157.768H219.779V128.053H132.939ZM181.499 145.594H177.444V149.65H173.382V153.706H169.33V149.65H173.382V145.594H169.33V141.534H173.382V145.594H177.444V141.534H181.499V145.594Z" fill="black"/>
<path d="M212.889 150.746H209.925V153.732H212.889V150.746Z" fill="white"/>
<path d="M215.862 147.774H212.899V150.76H215.862V147.774Z" fill="white"/>
<path d="M218.831 144.806H215.867V147.792H218.831V144.806Z" fill="white"/>
<path d="M212.889 144.806H209.925V147.792H212.889V144.806Z" fill="white"/>
<path d="M140.932 137.468H136.082V142.06H140.932V137.468Z" fill="black"/>
<path d="M141.586 142.062H136.082V146.031H141.586V142.062Z" fill="black"/>
<path d="M95.6079 99.2006C98.7072 99.2006 101.22 96.6882 101.22 93.5888C101.22 90.4895 98.7072 87.9771 95.6079 87.9771C92.5086 87.9771 89.9961 90.4895 89.9961 93.5888C89.9961 96.6882 92.5086 99.2006 95.6079 99.2006Z" fill="black"/>
<path d="M119.354 86.8869C122.453 86.8869 124.966 84.3744 124.966 81.2751C124.966 78.1758 122.453 75.6633 119.354 75.6633C116.254 75.6633 113.742 78.1758 113.742 81.2751C113.742 84.3744 116.254 86.8869 119.354 86.8869Z" fill="black"/>
<path d="M144.972 77.7912C148.071 77.7912 150.584 75.2787 150.584 72.1794C150.584 69.0801 148.071 66.5676 144.972 66.5676C141.873 66.5676 139.36 69.0801 139.36 72.1794C139.36 75.2787 141.873 77.7912 144.972 77.7912Z" fill="black"/>
<path d="M171.926 72.1794C175.025 72.1794 177.537 69.6669 177.537 66.5676C177.537 63.4683 175.025 60.9558 171.926 60.9558C168.826 60.9558 166.314 63.4683 166.314 66.5676C166.314 69.6669 168.826 72.1794 171.926 72.1794Z" fill="black"/>
<path d="M150.134 96.6935C148.431 98.2882 146.852 100.038 146.852 100.038C146.341 100.56 145.817 101.141 145.301 101.785C144.279 103.046 143.381 104.403 142.622 105.837C144.173 104.976 146.443 103.722 149.191 102.232C152.367 100.503 153.955 99.6376 154.676 99.271C158.624 97.2335 161.972 95.8447 168.509 93.1502C171.518 91.9108 173.021 91.2904 174.008 90.9196C178.272 89.3178 184.724 87.4693 193.607 86.8926C196.271 86.1044 198.748 84.6986 201.451 83.9499C196.555 82.5907 187.505 80.807 176.603 82.9813C176.603 82.977 161.586 85.9705 150.134 96.6935Z" fill="#1A1A1A"/>
</svg>
